<svg width="0" height="0" class="hidden">
  <symbol id="chevron" xmlns="http://www.w3.org/2000/svg" viewBox="0 0 51 51">
    <defs></defs>
    <circle cx="25.5" cy="25.5" r="25.5"></circle>
    <rect x="24.4" y="27.9" width="1.6" height="15.24" rx="0.8" transform="matrix(0.78, -0.63, 0.63, 0.78, -21.26, 15.39)"></rect>
    <rect x="33.3" y="27.9" width="1.6" height="15.24" rx="0.8" transform="translate(24 -21.9) rotate(37.3)"></rect>
  </symbol>
  <symbol id="growth" enable-background="new 0 0 512 512" xmlns="http://www.w3.org/2000/svg" viewBox="0 0 512 512">
    <g>
      <g>
        <path d="m504.5 480.837h-38.97v-240.347c0-4.142-3.357-7.5-7.5-7.5s-7.5 3.358-7.5 7.5v240.347h-49.648l-.002-318.357h49.65v43.01c0 4.142 3.357 7.5 7.5 7.5s7.5-3.358 7.5-7.5v-50.51c0-4.142-3.357-7.5-7.5-7.5h-64.65c-4.143 0-7.5 3.358-7.5 7.5v43.012h-57.148c-4.143 0-7.5 3.358-7.5 7.5v43.008h-57.15c-4.143 0-7.5 3.358-7.5 7.5v43.008h-57.15c-4.143 0-7.5 3.358-7.5 7.5v43.008h-57.15c-4.143 0-7.5 3.358-7.5 7.5v38.964h-57.152c-4.143 0-7.5 3.358-7.5 7.5v20.89c0 4.142 3.357 7.5 7.5 7.5s7.5-3.358 7.5-7.5v-13.39h49.65v69.857h-49.65v-21.467c0-4.142-3.357-7.5-7.5-7.5s-7.5 3.358-7.5 7.5v21.467h-31.467v-473.337c0-4.142-3.357-7.5-7.5-7.5s-7.5 3.358-7.5 7.5v38.967h-8.663c-4.143 0-7.5 3.358-7.5 7.5s3.357 7.5 7.5 7.5h8.663v49.65h-8.663c-4.143 0-7.5 3.358-7.5 7.5s3.357 7.5 7.5 7.5h8.663v49.65h-8.663c-4.143 0-7.5 3.358-7.5 7.5s3.357 7.5 7.5 7.5h8.663v49.65h-8.663c-4.143 0-7.5 3.358-7.5 7.5s3.357 7.5 7.5 7.5h8.663v49.651h-8.663c-4.143 0-7.5 3.358-7.5 7.5s3.357 7.5 7.5 7.5h8.663v49.65h-8.663c-4.143 0-7.5 3.358-7.5 7.5s3.357 7.5 7.5 7.5h8.663v49.65h-8.663c-4.143 0-7.5 3.358-7.5 7.5s3.357 7.5 7.5 7.5h8.663v38.967c0 4.142 3.357 7.5 7.5 7.5h38.967v8.663c0 4.142 3.357 7.5 7.5 7.5s7.5-3.358 7.5-7.5v-8.66h49.65v8.66c0 4.142 3.357 7.5 7.5 7.5s7.5-3.358 7.5-7.5v-8.663h49.65v8.663c0 4.142 3.357 7.5 7.5 7.5s7.5-3.358 7.5-7.5v-8.663h49.65v8.663c0 4.142 3.357 7.5 7.5 7.5s7.5-3.358 7.5-7.5v-8.663h49.65v8.663c0 4.142 3.357 7.5 7.5 7.5s7.5-3.358 7.5-7.5v-8.663h49.65v8.663c0 4.142 3.357 7.5 7.5 7.5s7.5-3.358 7.5-7.5v-8.66h49.65v8.66c0 4.142 3.357 7.5 7.5 7.5s7.5-3.358 7.5-7.5v-8.663h38.97c4.143 0 7.5-3.358 7.5-7.5s-3.357-7.498-7.5-7.498zm-362.22-116.321h49.65v116.321h-49.65zm64.651-50.508h49.65v166.829h-49.65zm64.65-50.508h49.65v217.337h-49.65zm64.65-50.508h49.648v267.846h-49.648z"></path>
        <path d="m86.1 338.44c6.323 0 12.267-2.46 16.734-6.927l112.91-112.91c2.929-2.929 2.929-7.678 0-10.606-2.93-2.929-7.678-2.929-10.607 0l-112.909 112.909c-1.635 1.634-3.811 2.534-6.128 2.534-2.311 0-4.482-.9-6.116-2.533-1.64-1.64-2.543-3.817-2.543-6.13 0-2.311.901-4.484 2.543-6.123l263.521-263.52c2.145-2.145 2.786-5.371 1.625-8.173-1.16-2.803-3.896-4.63-6.929-4.63h-23.61c-4.775 0-8.66-3.889-8.66-8.67 0-4.775 3.885-8.66 8.66-8.66h62.63c4.775 0 8.66 3.885 8.66 8.66v62.63c0 4.781-3.885 8.67-8.66 8.67s-8.66-3.889-8.66-8.67v-23.611c0-3.034-1.827-5.768-4.63-6.929-2.804-1.161-6.027-.518-8.174 1.626l-125.88 125.88c-2.929 2.929-2.929 7.678 0 10.606 2.93 2.929 7.678 2.929 10.607 0l113.076-113.076v5.503c0 13.052 10.614 23.67 23.66 23.67s23.66-10.618 23.66-23.67v-62.63c0-13.046-10.614-23.66-23.66-23.66h-62.63c-13.046 0-23.66 10.614-23.66 23.66 0 13.052 10.614 23.67 23.66 23.67h5.504l-250.714 250.713c-4.475 4.469-6.939 10.412-6.939 16.733 0 6.32 2.463 12.264 6.937 16.737 4.466 4.467 10.405 6.927 16.722 6.927z"></path>
      </g>
    </g>
  </symbol>
  <symbol xmlns="http://www.w3.org/2000/svg" viewBox="0 0 50 2" id="line">
    <path fill="#63c3ef" d="M0 0h50v2H0z"></path>
  </symbol>
  <symbol version="1.1" id="clock" xmlns="http://www.w3.org/2000/svg" xmlns:xlink="http://www.w3.org/1999/xlink" x="0px" y="0px" xml:space="preserve" viewBox="0 0 501.656 501.656">
    <g>
      <g>
        <path d="M342.512,328h-200c-2.122,0-4.156,0.844-5.656,2.344l-96,96l11.312,11.312L145.824,344h187.888
			c-1.664,9.496-6.888,24-23.2,24h-88v16h88c31.64,0,40-31.4,40-48C350.512,331.582,346.93,328,342.512,328z"></path>
      </g>
    </g>
    <g>
      <g>
        <path d="M444.168,274.344c-3.124-3.123-8.188-3.123-11.312,0l-72,72l11.312,11.312l65.712-65.712
			c10.828,14.37,8.629,34.68-5.024,46.4L339.2,432H174.512c-2.122,0-4.156,0.844-5.656,2.344l-56,56l11.312,11.312L177.824,448
			h164.688c2.122,0,4.156-0.844,5.656-2.344l96-96C473.96,319.864,457.192,287.368,444.168,274.344z"></path>
      </g>
    </g>
    <g>
      <g>
        <path d="M262.512,0c-83.947,0-152,68.053-152,152s68.053,152,152,152c83.909-0.093,151.907-68.091,152-152
			C414.512,68.053,346.459,0,262.512,0z M262.512,288c-75.111,0-136-60.889-136-136s60.89-136,136-136
			c75.076,0.084,135.916,60.924,136,136C398.512,227.111,337.623,288,262.512,288z"></path>
      </g>
    </g>
    <g>
      <g>
        <path d="M262.512,40c-61.856,0-112,50.144-112,112s50.145,112,112,112c61.828-0.066,111.934-50.172,112-112
			C374.512,90.144,324.368,40,262.512,40z M270.512,247.666V224h-16v23.666c-46.637-3.848-83.817-41.028-87.666-87.666h23.666v-16
			h-23.666c3.849-46.637,41.029-83.817,87.666-87.666V80h16V56.343c46.612,3.893,83.764,41.045,87.657,87.657h-23.657v16h23.666
			C354.33,206.637,317.15,243.817,270.512,247.666z"></path>
      </g>
    </g>
    <g>
      <g>
        <path d="M284.18,162.33c1.494-3.129,2.333-6.631,2.333-10.33c0-10.449-6.68-19.334-16-22.629V96h-16v33.371
			c-9.32,3.295-16,12.18-16,22.629c-0.001,13.255,10.745,24,23.999,24c3.711,0,7.225-0.843,10.362-2.347l23.977,23.977
			l11.314-11.314L284.18,162.33z M262.512,160c-4.418,0-8-3.582-8-8c0-4.418,3.582-8,8-8c4.418,0,8,3.582,8,8
			C270.512,156.418,266.93,160,262.512,160z"></path>
      </g>
    </g>
    <g></g>
    <g></g>
    <g></g>
    <g></g>
    <g></g>
    <g></g>
    <g></g>
    <g></g>
    <g></g>
    <g></g>
    <g></g>
    <g></g>
    <g></g>
    <g></g>
    <g></g>
  </symbol>
  <symbol xmlns="http://www.w3.org/2000/svg" viewBox="0 0 512 512" id="easy">
    <g id="Out_line">
      <path d="m184 304h-112a8.00008 8.00008 0 0 0 -8 8v96a8.00008 8.00008 0 0 0 8 8h112a8.00008 8.00008 0 0 0 8-8v-96a8.00008 8.00008 0 0 0 -8-8zm-8 96h-96v-80h96z"></path>
      <path d="m96 336h32v16h-32z"></path>
      <path d="m128 368h32v16h-32z"></path>
      <path d="m380 64h-244v-40a7.99985 7.99985 0 0 0 -12.87793-6.34082l-104 80a8 8 0 0 0 0 12.68164l104 80a7.99985 7.99985 0 0 0 12.87793-6.34082v-40h216a64.07239 64.07239 0 0 1 64 64v144a63.89737 63.89737 0 0 1 -48 61.99341v-181.99341a8.00008 8.00008 0 0 0 -8-8h-336a8.00008 8.00008 0 0 0 -8 8v256a8.00008 8.00008 0 0 0 8 8h356a116.13134 116.13134 0 0 0 116-116v-200a116.13134 116.13134 0 0 0 -116-116zm-28 176v192h-112v-192zm-208 0v32h-32v-32zm-112 0h64v40a8.00008 8.00008 0 0 0 8 8h48a8.00008 8.00008 0 0 0 8-8v-40h64v192h-192zm448 140a100.113 100.113 0 0 1 -100 100h-348v-32h328a8.00008 8.00008 0 0 0 8-8v-9.605a79.86446 79.86446 0 0 0 64-78.395v-144a80.09041 80.09041 0 0 0 -80-80h-224a8.00008 8.00008 0 0 0 -8 8v31.75293l-82.87891-63.75293 82.87891-63.75293v31.75293a8.00008 8.00008 0 0 0 8 8h252a100.113 100.113 0 0 1 100 100z"></path>
      <path d="m320 400h16v16h-16z"></path>
      <path d="m288 400h16v16h-16z"></path>
      <path d="m256 400h16v16h-16z"></path>
    </g>
  </symbol>
</svg>